<?xml version="1.0" encoding="UTF-8" standalone="no"?>
<svg
   version="1.1"
   id="Layer_1"
   x="0px"
   y="0px"
   width="100%"
   viewBox="0 0 1024 1024"
   enable-background="new 0 0 1024 1024"
   xml:space="preserve"
   sodipodi:docname="globe.svg"
   inkscape:version="1.3.2 (091e20e, 2023-11-25, custom)"
   xmlns:inkscape="http://www.inkscape.org/namespaces/inkscape"
   xmlns:sodipodi="http://sodipodi.sourceforge.net/DTD/sodipodi-0.dtd"
   xmlns="http://www.w3.org/2000/svg"
   xmlns:svg="http://www.w3.org/2000/svg"><defs
   id="defs7" /><sodipodi:namedview
   id="namedview7"
   pagecolor="#ffffff"
   bordercolor="#000000"
   borderopacity="0.25"
   inkscape:showpageshadow="2"
   inkscape:pageopacity="0.0"
   inkscape:pagecheckerboard="0"
   inkscape:deskcolor="#d1d1d1"
   inkscape:zoom="0.75878906"
   inkscape:cx="511.34106"
   inkscape:cy="512"
   inkscape:window-width="1920"
   inkscape:window-height="991"
   inkscape:window-x="-9"
   inkscape:window-y="-9"
   inkscape:window-maximized="1"
   inkscape:current-layer="Layer_1" />
<path
   fill="#bee1fc"
   opacity="1.000000"
   stroke="none"
   d=" M337.030884,178.989044   C374.223145,159.205460 413.425293,146.517807 454.574249,139.962814   C465.499481,138.222412 476.605103,137.367905 487.677704,136.448608   C498.838257,135.522018 509.950928,135.772675 521.079712,135.728195   C536.012634,135.668503 550.800049,137.518936 565.608643,139.418213   C591.051453,142.681396 615.726624,148.844666 639.821655,157.483795   C667.599121,167.443268 693.954895,180.250351 718.621765,196.541000   C737.228455,208.829300 754.520386,222.643677 770.990173,237.709717   C798.069336,262.480804 820.485352,290.981110 838.963623,322.396179   C861.271667,360.322205 876.570435,401.140594 884.296387,444.606384   C886.847656,458.959747 888.331421,473.435730 889.551208,487.979431   C890.501404,499.308868 890.241577,510.584839 890.265259,521.877441   C890.296631,536.814087 888.447388,551.612854 886.531555,566.429626   C883.925049,586.586487 879.355225,606.258972 873.447510,625.633301   C865.165955,652.792480 853.769104,678.690979 839.366211,703.108887   C827.640442,722.987976 814.159912,741.692627 798.997986,759.235168   C782.515137,778.305908 764.440613,795.675720 744.635315,811.078003   C718.717285,831.234314 690.527283,847.721008 660.171814,860.553162   C633.594849,871.788147 606.161743,879.890625 577.824951,884.898987   C565.117249,887.145020 552.257935,888.502625 539.349976,889.514343   C528.701172,890.348938 518.085327,890.365601 507.451904,890.334595   C482.321716,890.261475 457.524231,887.074890 432.960266,881.919556   C397.432526,874.463135 363.856659,861.620300 332.007477,844.390198   C311.534576,833.314514 292.380951,820.147095 274.306610,805.408386   C265.283325,798.050293 256.535034,790.351318 248.326141,782.178406   C226.015503,759.965454 206.487747,735.491089 190.182724,708.450134   C172.920258,679.821350 159.636108,649.514099 150.240646,617.463928   C144.306763,597.222107 140.368881,576.555725 137.858337,555.655579   C135.416931,535.330994 134.648254,514.832031 135.814636,494.420441   C138.244095,451.904999 146.919205,410.630463 163.021255,371.097656   C175.247543,341.080444 190.956757,313.007568 210.438431,287.027740   C222.037170,271.560211 234.482834,256.811035 248.380325,243.457626   C269.254211,223.400940 291.691467,205.223740 316.753815,190.461456   C323.344910,186.579178 329.782928,182.455231 337.030884,178.989044  M463.166931,210.218323   C460.605957,210.600296 458.276276,209.809723 455.881470,209.010681   C451.636505,207.594376 450.325867,208.580963 450.347656,212.956833   C450.354187,214.268646 450.610992,215.590973 450.861359,216.887589   C451.624084,220.837540 449.501862,222.048630 446.091797,221.778351   C444.357574,221.640884 442.641266,220.452881 440.963593,221.874207   C440.488007,223.940018 443.191406,224.912262 442.431732,227.311066   C440.060760,228.935898 437.480927,228.413544 434.710999,227.491058   C428.771423,225.512985 426.179321,220.644196 423.452057,215.598343   C422.079468,213.058853 421.664886,210.971497 423.353333,208.739212   C424.947418,206.631668 426.955719,205.510071 429.856232,206.284576   C432.600891,207.017471 435.498474,206.958237 438.273163,206.302811   C439.741913,205.955872 441.092316,205.014542 441.141205,203.243515   C441.180817,201.807968 440.471497,200.847534 439.022827,200.222565   C434.934204,198.458664 432.102448,195.204788 429.276367,191.877655   C426.029022,188.054596 421.797882,184.660477 416.740173,186.738602   C409.913483,189.543564 403.292084,187.219528 396.622955,187.348282   C390.889130,187.458969 390.118408,185.657166 391.886200,180.139359   C393.166046,176.144714 391.834442,174.534164 387.677002,174.859314   C384.899597,175.076538 382.556824,176.061752 380.493744,177.947144   C378.529755,179.742020 376.503143,181.493729 374.350647,183.052612   C365.104767,189.748749 365.079712,189.773438 373.243774,197.763977   C373.720062,198.230164 374.217896,198.674332 374.694794,199.139877   C377.337738,201.719559 379.433411,201.717056 382.206940,198.770111   C387.002625,193.674622 393.628052,192.240692 400.187775,190.552002   C400.802826,193.432816 399.618042,195.203644 399.078247,197.079956   C398.025421,200.739624 397.409943,205.627960 393.589844,206.661789   C384.466553,209.130737 375.705963,213.004074 366.288635,214.258408   C362.876251,214.712936 359.382050,215.238968 357.052338,217.527863   C351.602448,222.882263 344.794434,223.439331 337.863708,224.510147   C332.776489,225.296127 327.025909,225.639587 323.715790,230.513168   C320.738464,234.896759 319.521698,240.016312 320.447266,245.282120   C321.896393,253.526642 324.530914,256.919556 331.415192,255.612396   C338.567535,254.254333 344.876312,261.200958 345.351532,268.034454   C345.534943,270.672119 346.118317,273.279694 346.380432,275.914764   C346.657166,278.696442 348.619568,279.843567 350.815765,280.796143   C353.192749,281.827118 354.535095,280.123779 355.946869,278.727203   C358.309204,276.390411 360.745361,274.164551 363.296448,272.011566   C368.457001,267.656311 374.237061,263.854584 377.502899,257.542450   C383.580811,245.795197 391.799805,236.134720 403.854553,229.945709   C407.130463,228.263824 409.576935,227.502197 413.017731,229.357117   C417.196350,231.609772 421.399445,234.409042 426.428223,234.128159   C429.200012,233.973343 431.628601,234.677795 434.135254,235.512161   C441.432098,237.940964 442.128296,245.184982 445.175873,250.681091   C448.498077,256.672455 449.105560,264.504333 457.915344,266.463623   C461.373932,267.232788 461.617157,276.977173 458.275513,278.003784   C450.919739,280.263519 444.519501,284.371094 437.606750,287.423523   C429.885162,290.833099 421.357300,290.221191 413.038635,290.424805   C406.758667,290.578522 401.951752,293.767517 398.215637,298.715698   C400.696075,301.888153 403.209900,300.057220 405.438690,299.616119   C413.260773,298.068115 417.619263,302.477631 415.602020,310.029236   C415.306244,311.136658 415.410156,312.345123 415.256012,313.497040   C414.153320,321.737518 406.438293,327.255829 397.803711,325.750275   C398.367249,323.189911 398.459015,320.613892 397.587219,318.056335   C396.966187,316.234558 396.048279,315.051727 393.957794,315.687347   C389.357941,317.085968 384.640076,318.215271 380.217255,320.049713   C373.425201,322.866852 368.822754,328.467010 364.429413,334.067413   C362.039948,337.113403 359.985413,340.299988 355.817444,341.038300   C344.721130,343.003906 336.581726,348.284576 331.786926,359.201904   C327.669495,368.576874 318.494781,374.212952 311.955017,381.854462   C304.605591,390.442017 297.245026,398.721252 298.923981,411.689270   C299.473022,415.929901 299.332550,421.509003 295.934509,426.005402   C291.893860,421.382416 286.882874,418.074219 285.182526,412.104675   C283.381927,405.783020 280.654297,401.153381 272.616516,403.992706   C270.736084,404.656952 267.894592,403.710022 265.898529,402.704163   C261.860596,400.669373 257.657410,400.871490 254.454620,403.146851   C249.307205,406.803772 243.803925,406.247742 238.220016,406.315338   C229.145706,406.425140 222.212692,411.774109 215.703766,416.839600   C212.090927,419.651276 210.226517,424.987091 207.127914,428.887909   C205.987549,430.323608 205.928162,432.215332 206.566818,433.673492   C210.232330,442.042389 211.870331,451.159607 216.122421,459.303223   C217.190277,461.348389 218.439987,462.952118 221.090027,462.634003   C229.801041,461.588440 237.958847,459.709534 243.370911,451.668152   C246.644440,446.804291 248.636154,446.813599 253.571960,450.521912   C251.624878,453.702301 251.464798,457.275421 251.163681,460.954742   C250.809692,465.279999 250.897934,470.013641 246.804077,473.182220   C245.286652,474.356689 245.532715,475.924316 247.066788,476.928436   C249.989502,478.841339 253.034348,480.768341 256.714600,480.421906   C265.136658,479.629028 267.537872,481.938568 268.450470,490.315887   C268.920197,494.627686 267.167603,499.262451 268.874512,502.994904   C271.087433,507.833771 276.342621,510.360687 280.480957,513.624390   C282.857697,515.498901 285.654572,513.758667 288.100616,513.077698   C292.638977,511.814270 296.729523,511.231293 300.486755,515.152893   C301.918488,516.647278 304.502808,517.506470 306.258270,515.266663   C309.124054,511.610260 313.669189,511.221283 317.209106,508.791168   C317.843475,509.524719 318.248077,510.042114 318.702850,510.510864   C324.134277,516.110046 325.843109,515.823242 328.924774,508.807800   C330.701935,504.762054 339.533539,501.698395 341.671478,504.783234   C344.394165,508.711761 347.900818,508.700195 351.735596,508.671936   C360.687408,508.605957 368.859924,511.519073 376.000885,516.479187   C380.194336,519.391968 384.417786,521.771423 389.221222,523.160278   C394.718994,524.749817 399.113251,527.634155 401.896759,532.754700   C402.892944,534.587341 404.480988,535.566345 406.495605,536.252502   C414.201263,538.876770 421.990692,541.269653 429.439850,544.626160   C432.686279,546.088928 434.282684,548.179321 434.364777,551.847107   C434.503601,558.048523 432.829620,563.563843 429.576508,568.812744   C424.908142,576.345093 425.993439,579.106567 434.315765,582.139954   C436.276367,582.854492 438.213318,582.723267 440.198151,582.230408   C444.912964,581.059631 449.243134,578.898926 453.701233,577.067932   C455.077362,576.502808 456.368774,575.669678 457.950348,576.523926   C470.819092,583.474670 485.411407,585.467102 498.832275,590.724670   C506.732391,593.819580 511.980133,601.099609 514.103088,608.770630   C516.492676,617.405273 514.154968,626.658447 510.269501,634.801025   C505.840271,644.083008 502.200623,653.717102 497.317535,662.818970   C495.416504,666.362488 492.188599,670.300415 493.634186,674.840088   C495.033936,679.235718 493.082611,682.217041 490.704285,685.292603   C489.486755,686.867065 488.008881,688.275574 486.996979,689.967407   C483.646576,695.569092 478.788971,698.784912 472.517578,700.507446   C469.090424,701.448669 464.610046,701.273865 462.568695,704.426208   C459.217499,709.601135 454.453613,712.740540 449.367523,715.549683   C446.581696,717.088257 445.010773,719.226929 444.684662,722.145081   C443.306030,734.481812 436.199188,743.955078 429.206757,753.479858   C427.950104,755.191589 426.447296,757.574158 424.250702,757.333862   C419.187012,756.779724 416.467987,760.382446 412.965271,762.693237   C410.528900,764.300537 409.910645,765.925964 412.114471,768.315552   C413.724518,770.061279 414.460785,772.245056 414.190460,774.760315   C413.469879,781.465210 410.753784,786.795898 404.372375,789.778931   C402.841644,790.494568 400.925873,791.382385 401.603912,793.354980   C402.835510,796.937744 401.021393,799.500793 399.279449,802.097656   C394.470703,809.266418 393.273865,816.074463 398.131836,824.209839   C403.218719,832.728455 403.913940,842.129761 398.068237,851.088318   C397.541443,851.895691 397.433655,852.964966 397.043915,853.875244   C395.758759,856.876770 396.858917,858.554993 399.847717,859.514771   C409.332214,862.560425 418.905365,865.268982 428.568695,867.696167   C452.154999,873.620422 476.223511,876.040955 500.395935,877.572937   C521.084229,878.884155 541.673889,876.286682 562.138184,874.169250   C583.236450,871.986145 603.851990,866.643738 624.198730,860.163940   C651.795593,851.375122 677.835205,839.392395 702.530701,824.508911   C719.732239,814.141724 735.988831,802.345215 751.079468,788.980042   C764.524292,777.072632 777.556091,764.820557 788.820679,750.754761   C791.933533,746.867737 790.645874,743.548157 787.942078,741.070862   C781.667786,735.322388 779.253906,727.908813 777.678223,720.061096   C774.954407,706.495117 772.064697,692.924194 764.069580,681.338135   C759.650391,674.933899 759.267822,667.579712 758.015686,660.560486   C757.258545,656.315857 758.344482,650.905212 760.986450,647.277344   C766.286743,639.999329 768.819763,632.693176 766.759583,623.622375   C764.848877,615.209473 762.542969,606.693909 759.062683,599.120728   C755.965271,592.380676 750.279602,586.760376 748.460815,579.012756   C746.671631,571.390869 742.724426,564.114380 746.229492,555.915344   C747.527466,552.879150 743.406982,544.976807 740.315796,544.977295   C733.834106,544.978394 730.125732,540.924377 725.960144,537.032532   C717.514526,529.141846 706.635803,528.021484 699.999817,534.560242   C695.904175,538.595825 691.065857,540.093262 685.943604,539.132019   C677.421082,537.532593 669.868286,539.358459 662.586304,543.515564   C656.147583,547.191284 649.296997,544.181274 644.873108,541.203491   C640.023438,537.939026 636.053589,532.095947 633.583618,525.855530   C629.301392,515.036560 626.614929,503.267273 616.690247,495.467133   C614.636597,493.853088 613.949341,491.024872 613.641785,488.271729   C613.030823,482.803772 614.076843,477.729401 616.492188,472.806122   C618.413574,468.889801 618.498779,464.552216 616.855835,460.685730   C613.579041,452.974060 614.613342,445.399811 620.366699,439.272858   C621.605042,437.954163 623.247925,436.519226 623.564453,434.913177   C625.378784,425.706207 632.628967,420.091705 637.604004,412.990509   C640.184021,409.307800 643.255798,406.256439 647.342102,404.011169   C651.534668,401.707428 654.713196,398.313538 653.728394,392.711365   C653.256958,390.029449 655.374084,388.515961 657.117310,386.977325   C661.344299,383.246490 666.663818,380.447021 669.663452,375.719147   C672.671082,370.978668 676.034729,371.195404 680.193481,372.804962   C687.591492,375.668152 694.371643,374.569000 699.783325,368.877411   C704.006592,364.435669 708.833435,363.636475 714.586121,363.541046   C725.091492,363.366791 735.792542,366.405823 746.114319,361.894592   C747.724365,361.190918 749.625549,362.000214 750.036865,363.973999   C750.679749,367.059235 752.282837,369.847717 752.362915,373.124023   C752.572083,381.679291 754.051270,383.255585 762.685425,385.707611   C766.920593,386.910309 771.380981,387.769989 773.454895,392.663940   C774.112427,394.215576 776.016602,395.229218 777.889282,395.661072   C782.416382,396.705017 786.898926,398.055664 791.481018,398.719330   C797.731018,399.624542 800.812195,396.763214 800.676392,390.681335   C800.601440,387.323700 801.450989,385.621124 805.452026,385.527832   C810.706055,385.405426 815.206604,387.008759 819.677490,389.332062   C822.177063,390.630920 824.817261,392.322235 827.693726,391.409790   C835.079712,389.066956 841.696045,391.080536 848.191101,394.381836   C849.814575,395.207031 851.558350,396.476837 853.216064,394.817688   C854.747986,393.284424 855.718506,391.467316 855.175659,388.978302   C854.070007,383.908478 852.024963,379.210022 850.163391,374.410828   C848.036011,368.926727 844.970032,364.894196 838.675842,364.097260   C837.498230,363.948151 836.008789,363.020416 835.421570,362.010895   C832.870178,357.624542 830.599304,353.074982 828.241882,348.613983   C829.837036,347.302185 832.399536,347.411621 832.033813,344.815369   C831.735962,342.701385 829.939880,342.532013 828.334290,342.059814   C827.223877,341.733276 826.220520,341.043549 825.110535,340.714935   C818.622498,338.794312 813.444458,340.574799 811.256409,344.839874   C809.254028,348.743073 812.081726,351.016632 813.474060,353.880310   C815.257263,357.547821 814.198486,360.813629 811.261353,363.268005   C808.861206,365.273590 806.133728,364.142609 804.705383,362.032806   C802.774109,359.180115 803.051147,356.077454 806.198242,353.795654   C806.383240,353.661469 806.314392,353.177216 806.371704,352.803558   C805.326416,351.108276 804.265076,349.405548 801.905212,349.348816   C796.145813,349.210449 795.158569,344.381439 795.181030,340.658203   C795.207336,336.284607 793.425537,334.265930 790.357788,331.790955   C782.391785,325.364197 771.046509,325.083130 764.072327,316.958740   C763.131836,315.863129 761.541687,316.362274 760.479065,317.413513   C759.383484,318.497467 759.463257,319.365051 760.407959,320.819977   C765.779419,329.092072 771.098938,337.332306 781.689209,340.596649   C778.740662,345.682129 781.911865,351.317444 779.175232,356.009186   C776.696716,355.458771 776.838928,354.034882 776.831299,352.708923   C776.796204,346.619354 774.354797,342.626740 768.786743,339.202454   C761.520386,334.733673 753.426025,331.319733 747.449341,324.776703   C745.018677,322.115753 741.868591,322.214294 739.018188,324.749664   C735.560120,327.825592 731.326111,328.317230 727.320007,326.820953   C720.105408,324.126221 715.381104,325.853027 712.124023,333.016235   C710.878723,335.755127 709.264343,338.433289 706.764648,340.114655   C702.021667,343.304962 700.163452,348.228912 698.170532,353.138153   C697.042419,355.916840 695.571899,358.061523 692.864685,359.968231   C685.974182,364.821442 678.444031,363.138092 671.095337,363.143707   C668.017578,363.146088 665.145142,356.578186 667.481873,355.027679   C672.586121,351.640900 671.428589,346.335754 672.892883,341.813568   C674.253967,337.610352 674.097656,334.666260 668.759277,333.964081   C667.029724,333.736572 665.399414,332.555359 663.785278,331.694885   C660.977905,330.198364 661.354736,328.291443 663.551025,326.694000   C664.847168,325.751251 666.600891,324.735596 668.065796,324.846680   C674.928467,325.367126 681.923523,324.118347 688.651306,325.960541   C692.841797,327.107941 694.715942,325.994690 694.704163,321.627808   C694.701050,320.489075 695.110413,319.351593 695.307007,318.209564   C696.513306,311.203369 694.069397,306.249146 687.891235,303.205170   C685.938782,302.243225 684.624390,300.963104 685.314758,298.399872   C690.526062,296.314758 696.774841,297.566528 701.472229,294.114410   C707.111084,289.970367 713.228455,286.670166 719.161438,283.039337   C721.847290,281.395630 725.247314,280.438660 726.971130,277.790710   C732.699097,268.991760 742.530273,270.231171 750.770386,267.992035   C755.984009,266.575317 761.614075,267.668823 766.837402,270.034424   C770.197693,271.556305 772.666687,268.781616 774.534790,266.695892   C776.047668,265.006714 775.996460,262.016541 774.372681,260.187531   C772.466858,258.040924 769.836304,257.967133 767.057556,259.153717   C762.388611,261.147400 759.727356,259.402313 758.659241,254.295334   C756.313965,243.081909 753.608032,240.964966 745.048401,245.129959   C743.880615,245.698227 742.490479,245.838226 741.187012,246.093246   C738.587769,246.601746 735.745667,246.194687 734.202393,244.348190   C729.850464,239.141098 728.298340,232.508560 729.569092,226.199509   C730.316650,222.488098 729.646118,220.677872 727.291321,218.566345   C720.309814,212.305969 712.198364,207.625000 704.343689,202.674255   C685.437622,190.757858 665.195374,181.389542 644.602356,172.788605   C632.090942,167.563049 623.684753,174.434952 618.299805,184.234879   C617.415955,185.843353 617.943665,187.255539 619.139587,188.273285   C622.253967,190.923706 620.486267,192.389496 618.022522,193.895645   C615.433228,195.478546 612.600220,195.712921 609.822266,195.054611   C607.880615,194.594498 606.272278,195.030243 604.499695,195.514145   C594.608887,198.214294 584.986755,201.383926 576.026794,206.666962   C571.070984,209.589005 564.776306,211.554016 559.347961,210.837509   C553.872314,210.114777 552.290771,212.881851 549.606079,215.851776   C546.134399,219.692261 543.372070,224.630554 537.147949,224.922318   C536.052307,224.973694 534.843994,226.226044 533.987732,227.190186   C528.527466,233.338272 515.307373,235.355209 508.474609,231.003494   C507.176025,230.176437 506.289062,229.116028 505.691711,227.625717   C502.546875,219.779861 504.015900,213.318909 510.524200,207.721176   C511.904541,206.533966 512.740601,205.270264 512.659668,203.467407   C512.578186,201.653793 513.770325,200.465988 514.555603,199.009445   C517.135071,194.224777 524.208313,191.693878 521.981079,184.445526   C521.879822,184.116104 522.339783,183.513474 522.672607,183.167068   C525.896118,179.811981 524.629028,177.420395 521.266052,175.090103   C519.195190,173.655136 517.157532,171.878387 514.765747,171.525314   C509.052979,170.682007 506.572510,167.059402 505.487152,161.987274   C504.809784,158.821777 502.935242,158.122574 499.979370,158.575745   C495.381531,159.280655 490.753448,159.821655 486.121765,160.257645   C484.149658,160.443268 481.624115,160.514160 481.801666,157.570312   C482.176086,151.361923 478.190308,150.895828 473.682068,151.021072   C464.266174,151.282639 456.138672,155.186554 448.488068,160.244934   C445.949982,161.923065 443.515656,162.851639 440.606232,161.390152   C438.273834,160.218506 436.147919,160.396866 434.330048,162.397675   C436.621765,167.184845 435.439453,169.177597 430.225983,169.309174   C428.401184,169.355240 426.550323,169.324936 424.746765,169.074524   C419.483032,168.343689 418.424896,169.744736 420.456482,175.393555   C423.964050,173.742889 426.633820,175.246796 429.278229,177.659866   C431.791840,179.953583 434.671875,181.344070 438.398560,180.011673   C440.352936,179.312943 443.131622,178.837723 444.445923,180.885849   C447.604187,185.807587 452.339813,188.248993 457.878235,190.029831   C455.859375,196.398468 459.441071,200.193314 463.652710,203.391525   C466.737732,205.734207 467.026947,207.655472 463.166931,210.218323  M211.114471,717.471191   C223.153839,735.673950 236.866089,752.638123 252.239639,768.002075   C266.754059,782.507568 282.230835,796.065613 299.216278,807.863403   C319.499268,821.951538 340.438904,834.793518 362.860352,845.152283   C369.302979,848.128845 370.397980,847.248596 369.741211,840.428284   C369.645691,839.436462 369.565948,838.413147 369.698853,837.434265   C370.331299,832.775269 368.307465,829.810181 364.601410,826.956848   C360.017303,823.427490 355.755035,819.272156 352.133514,814.761230   C348.769653,810.571106 347.285431,805.110229 348.170837,799.768860   C350.403351,786.300659 350.079102,772.943848 346.919617,759.753601   C344.798431,750.898010 343.797729,742.021667 345.086823,733.087158   C347.282654,717.868286 348.721924,702.681702 343.443573,687.872803   C340.931641,680.825500 339.395020,673.386597 333.135559,667.780640   C328.214935,663.373779 321.910828,661.090698 317.447144,656.711548   C309.304077,648.722778 303.345459,638.800415 296.860596,629.411804   C291.470917,621.608887 290.428131,611.505066 283.998138,604.248413   C282.199280,602.218262 281.954926,600.403503 282.552155,597.943726   C283.653870,593.406128 283.907471,589.055115 282.207153,584.296570   C280.897949,580.632507 280.044220,575.565186 282.931763,572.304260   C288.893982,565.570923 292.603943,557.569824 296.831116,549.877747   C299.673553,544.705627 303.503571,539.762268 303.619995,533.455566   C303.713898,528.369934 300.690735,524.997559 296.842346,525.782227   C287.861847,527.613159 279.983765,524.317078 272.946198,519.652588   C261.886749,512.322388 251.274643,504.293732 240.720917,496.236328   C236.785995,493.232117 231.179001,491.688873 230.118240,485.640961   C229.944092,484.648102 228.729263,484.506805 227.620972,484.509308   C216.287872,484.534729 206.177475,480.193573 196.186661,475.519196   C187.152573,471.292389 179.744507,464.185028 170.189423,460.839905   C166.268417,459.467194 165.686920,456.074493 167.397018,453.107239   C169.812958,448.915131 168.478241,445.986511 165.744171,442.907379   C163.318970,440.176117 161.889862,436.310089 156.383682,435.489899   C136.821579,536.840454 153.696320,630.654114 211.114471,717.471191  z"
   id="path1" />
<path
   fill="#bee1fc"
   opacity="1.000000"
   stroke="none"
   d=" M696.558594,259.287933   C698.699280,262.668610 700.853943,265.660797 701.422180,269.397217   C701.666870,271.006470 702.763306,272.287384 704.034668,272.885559   C709.073608,275.256378 709.121216,278.870605 707.255249,283.348450   C706.613770,284.887756 705.920410,286.042053 704.231628,286.191010   C697.647522,286.771790 691.064270,287.313385 684.673767,289.186157   C684.132263,289.344879 683.429077,288.951843 682.660461,288.784546   C683.600708,284.651794 688.737671,285.302032 690.243469,282.033691   C684.092407,277.363129 684.087769,276.105377 689.982727,270.716370   C692.247314,268.646149 692.647705,262.823639 690.133545,261.982422   C684.208984,260.000092 686.564575,255.929321 686.998047,252.318573   C687.166931,250.911896 687.934631,249.577133 688.474731,248.084854   C691.958252,248.853333 693.576538,250.674179 693.327454,254.056458   C693.157471,256.363373 693.506409,258.427979 696.558594,259.287933  z"
   id="path2" />
<path
   fill="#bee1fc"
   opacity="1.000000"
   stroke="none"
   d=" M287.301880,446.398804   C282.930267,445.755096 278.712646,447.451843 274.133423,444.826294   C278.497925,442.213959 281.371918,438.686981 286.937897,440.396576   C294.225128,442.634827 302.519012,441.734131 308.643829,447.520966   C311.635406,450.347412 314.355377,453.452148 318.478088,455.864258   C314.371185,458.389130 311.443878,456.699371 308.705475,455.577972   C301.649933,452.688751 294.711792,449.512909 287.301880,446.398804  z"
   id="path3" />
<path
   fill="#bee1fc"
   opacity="1.000000"
   stroke="none"
   d=" M651.729736,260.277039   C657.004944,260.145386 661.637024,262.416534 666.645386,261.938202   C667.649170,261.842346 668.506714,262.695251 668.678101,263.800934   C668.900818,265.237579 667.805603,265.801147 666.776428,266.388519   C659.096191,270.771698 651.263794,273.794128 642.424927,269.585510   C641.287842,269.044098 639.879456,269.072601 637.497559,268.635345   C640.913330,262.823395 648.402771,265.168396 651.729736,260.277039  z"
   id="path4" />
<path
   fill="#bee1fc"
   opacity="1.000000"
   stroke="none"
   d=" M450.429382,288.439667   C451.520935,287.451294 452.176453,286.339111 453.900360,286.736420   C454.468964,291.287964 454.826752,295.818909 460.236511,298.331543   C462.719452,299.484863 460.861481,302.606018 458.615387,303.718689   C457.234314,304.402863 455.263519,304.631622 453.779266,304.235016   C449.279480,303.032623 444.802460,302.699341 440.197754,303.259064   C439.129517,303.388885 437.746826,303.494812 437.193726,302.119965   C436.508392,300.416382 437.928528,299.731812 438.982391,299.038513   C443.289856,296.204712 447.442108,293.222534 450.429382,288.439667  z"
   id="path5" />
<path
   fill="#bee1fc"
   opacity="1.000000"
   stroke="none"
   d=" M734.312134,346.436523   C734.305664,347.353088 734.297424,347.850037 734.304260,348.346771   C734.346619,351.443848 734.258301,355.095886 730.251343,354.956360   C726.203613,354.815491 727.798645,350.914093 727.746643,348.599670   C727.535400,339.199066 728.451782,336.018738 732.236328,330.811646   C732.550293,330.776978 732.916321,330.629700 733.171936,330.739532   C742.027527,334.543732 742.052246,334.568787 735.908752,342.002075   C734.900940,343.221558 734.239807,344.435944 734.312134,346.436523  z"
   id="path6" />
<path
   fill="#bee1fc"
   opacity="1.000000"
   stroke="none"
   d=" M342.453705,466.165894   C335.872131,466.515778 329.714203,466.808441 323.556274,467.101105   C326.473236,464.521576 331.003418,463.705872 330.088043,458.392395   C329.918945,457.410736 331.263123,456.924988 332.308807,456.826691   C338.917145,456.205475 344.977570,458.184143 350.876556,460.833740   C351.152039,460.957428 351.136627,461.728790 351.301910,462.375458   C348.925446,464.599762 345.360870,464.200226 342.453705,466.165894  z"
   id="path7" />
<path
   style="fill:#ffffff;stroke-width:1.31789"
   d="m 488.93694,876.24916 c -22.61089,-2.3451 -40.81021,-4.89278 -50.5064,-7.07024 -17.05476,-3.82997 -38.46569,-10.06144 -40.06478,-11.66052 -0.99826,-0.99827 -0.58504,-3.31985 1.42089,-7.98275 3.73097,-8.67288 3.59439,-16.34163 -0.43702,-24.53694 -4.15071,-8.43781 -4.16874,-14.42105 -0.0635,-21.08623 1.78577,-2.89935 3.26536,-6.86891 3.28798,-8.82124 0.0292,-2.51789 1.18417,-4.2249 3.9735,-5.8726 2.1628,-1.2776 4.83152,-4.21775 5.9305,-6.53365 2.2649,-4.77292 2.66096,-13.13136 0.68024,-14.35552 -2.53126,-1.5644 -1.28385,-4.41867 3.1208,-7.1409 2.44129,-1.5088 5.65323,-2.74327 7.13765,-2.74327 5.04566,0 17.47635,-18.68839 20.63881,-31.0285 1.36741,-5.33578 3.09954,-8.69325 5.40925,-10.48501 1.86873,-1.44968 6.2482,-5.16532 9.73216,-8.257 4.02804,-3.57448 8.91604,-6.38175 13.4246,-7.70998 11.19642,-3.29847 23.36718,-17.63368 21.76643,-25.63739 -0.55821,-2.7911 1.44842,-8.23577 8.31119,-22.55106 14.44072,-30.12237 15.98667,-39.40476 8.6482,-51.92691 -4.3744,-7.46434 -8.65037,-9.8263 -29.65884,-16.38292 -9.78533,-3.05395 -19.345,-6.35025 -21.24372,-7.32515 -3.06257,-1.57245 -4.57264,-1.37234 -13.37908,1.77287 -9.69177,3.46141 -10.03917,3.49181 -14.66877,1.28411 -5.58911,-2.66526 -5.792,-4.2729 -1.58665,-12.57178 2.96975,-5.8605 4.06809,-11.45517 3.62578,-18.46873 -0.20879,-3.31072 -7.0373,-6.94807 -21.71374,-11.5663 -5.68635,-1.78931 -8.67303,-3.66637 -11.48699,-7.21928 -2.3684,-2.99034 -6.18058,-5.68704 -10.10719,-7.1497 -3.46748,-1.29164 -9.76381,-4.41799 -13.99186,-6.94743 -9.10092,-5.44467 -17.65807,-8.22881 -25.2916,-8.22881 -3.61711,0 -6.75308,-0.95159 -9.02478,-2.73851 -4.83428,-3.80265 -10.57666,-2.40698 -14.40207,3.50036 -3.39254,5.23888 -4.36713,5.44727 -8.28083,1.77054 -2.81044,-2.64027 -3.07519,-2.65833 -7.33333,-0.50002 -2.42969,1.23153 -5.44026,3.13537 -6.69016,4.23076 -2.03487,1.78331 -2.64156,1.74981 -5.80113,-0.32042 -2.81917,-1.8472 -5.14438,-2.14742 -11.5653,-1.49332 -7.91063,0.80588 -8.12974,0.73844 -13.96721,-4.29841 -5.73409,-4.94765 -5.92108,-5.34539 -5.64603,-12.00932 0.36759,-8.90612 -2.4009,-15.75017 -6.4772,-16.01246 -1.66787,-0.10732 -3.92207,-0.31604 -5.00933,-0.46382 -1.08726,-0.14777 -2.90132,-0.3565 -4.03125,-0.46382 -1.12993,-0.10731 -3.13579,-0.98584 -4.45746,-1.95228 -2.19645,-1.60607 -2.23038,-2.03097 -0.39475,-4.94208 1.10457,-1.75172 2.39158,-6.15018 2.86002,-9.77438 0.46844,-3.6242 1.16809,-8.19842 1.55476,-10.16493 0.59318,-3.01676 0.16855,-3.70965 -2.71728,-4.43395 -2.82994,-0.71026 -4.52224,0.17228 -9.80412,5.11285 -8.9223,8.34577 -21.02538,11.49622 -23.85478,6.20944 -0.77051,-1.43971 -3.35816,-8.23523 -5.75033,-15.10114 l -4.3494,-12.48349 3.75389,-6.50198 c 4.06834,-7.04663 14.3556,-15.09357 22.15545,-17.33054 2.52481,-0.72411 7.57604,-1.31656 11.22495,-1.31656 3.64891,0 7.81891,-0.82967 9.26666,-1.84372 3.51416,-2.46141 6.89779,-2.84082 12.45098,-1.39615 2.53693,0.66 6.98481,1.21417 9.88417,1.23152 5.04212,0.0301 5.41495,0.32979 8.56628,6.88431 3.04396,6.33123 9.88261,14.89238 11.89603,14.89238 2.04689,0 3.92082,-7.38033 3.94758,-15.5472 0.0401,-12.24816 2.93186,-17.7625 16.89218,-32.21241 6.48497,-6.71239 13.93803,-15.87632 16.56235,-20.3643 5.77453,-9.8753 14.37559,-16.221 21.98616,-16.221 1.54969,0 6.80241,-4.27936 12.78742,-10.41784 8.54536,-8.7645 11.33736,-10.78251 17.59262,-12.71567 9.0302,-2.79075 11.67414,-2.03797 11.67414,3.32381 0,3.70829 0.34052,3.99503 4.7444,3.99503 3.6384,0 5.78895,-1.04455 9.22523,-4.48083 2.46445,-2.46445 4.48082,-5.6521 4.48082,-7.08365 0,-1.43156 0.35829,-4.39433 0.79623,-6.58395 0.60963,-3.04816 0.10944,-4.66791 -2.13438,-6.91173 -2.47038,-2.47038 -3.85387,-2.80404 -8.80984,-2.12476 -6.68666,0.91651 -7.09701,-0.62327 -1.31629,-4.9392 2.72656,-2.03567 6.58942,-2.84153 17.04947,-3.55683 12.46784,-0.85261 14.52786,-1.40615 26.37363,-7.08674 l 12.84942,-6.1619 v -5.12589 c 0,-4.52853 -0.5194,-5.37235 -4.45692,-7.24082 -3.64812,-1.73115 -5.42716,-4.20321 -9.80352,-13.62243 -2.94063,-6.32911 -6.48704,-12.53957 -7.88092,-13.80101 -1.39388,-1.26144 -5.75796,-2.81819 -9.69797,-3.45944 -3.93998,-0.64126 -9.98637,-2.53731 -13.43641,-4.21347 l -6.27277,-3.04755 -7.20255,3.77102 c -8.26356,4.32653 -18.19009,14.58946 -23.93912,24.75042 -2.57108,4.54419 -7.766,10.20651 -14.8031,16.135 -13.84728,11.6658 -14.20145,11.53458 -17.87012,-6.62116 -1.05801,-5.23596 -7.06101,-9.75925 -12.98105,-9.78129 -6.57293,-0.0245 -8.13617,-0.91883 -9.95148,-5.69346 -2.11489,-5.56257 -1.68085,-11.60166 1.16984,-16.27689 3.27818,-5.37633 5.2576,-6.35089 16.80673,-8.27475 6.11141,-1.01804 11.50992,-2.89372 15.15573,-5.26576 3.11465,-2.02645 8.03518,-4.08587 10.93454,-4.57649 9.68842,-1.63946 27.65107,-7.52124 29.77014,-9.7481 2.18456,-2.29566 5.79212,-13.20416 4.72099,-14.27528 -1.53939,-1.53939 -10.88665,1.6098 -16.75048,5.64341 l -6.46064,4.44413 -4.72553,-4.72552 c -2.59903,-2.59904 -4.54399,-5.51133 -4.32211,-6.47176 0.22187,-0.96043 3.95077,-4.49183 8.28644,-7.84756 10.19838,-7.89337 14.52109,-7.9115 14.52109,-0.0609 v 5.2653 l 9.22522,1.04599 c 5.75003,0.65196 11.35677,0.51762 14.88357,-0.35662 6.59947,-1.6359 6.63336,-1.6201 17.23831,8.0375 7.02501,6.39746 7.85005,7.62217 6.10843,9.06759 -1.24875,1.03637 -3.98528,1.40665 -7.2046,0.97485 -9.76444,-1.30968 -12.38385,4.71424 -6.26483,14.40739 3.55278,5.62795 9.23442,8.85084 14.32121,8.12365 2.28297,-0.32637 3.01211,-1.19417 2.79084,-3.32152 -0.24528,-2.35807 0.47091,-2.95412 3.95367,-3.29046 4.07146,-0.39318 4.27036,-0.67822 4.65488,-6.67071 0.4403,-6.86197 0.36139,-6.80205 6.60145,-5.01242 8.95134,2.56721 11.37763,-1.85528 4.82764,-8.79951 -2.92101,-3.09682 -4.58238,-6.15986 -4.58238,-8.44847 0,-2.49553 -0.84813,-3.85948 -2.78146,-4.4731 -1.52981,-0.48554 -5.06863,-2.9491 -7.86403,-5.47459 -4.2978,-3.88279 -5.70799,-4.45442 -9.1331,-3.70214 -2.89281,0.63537 -5.0711,0.19717 -7.62117,-1.53314 -1.96386,-1.33253 -5.05327,-2.72513 -6.86536,-3.09467 -1.8121,-0.36954 -3.29473,-1.55564 -3.29473,-2.63578 0,-1.4664 1.9196,-2.06401 7.57787,-2.35913 7.48895,-0.3906 7.57786,-0.44258 7.57786,-4.42981 0,-3.88745 0.16609,-4.00341 4.55499,-3.18004 3.70433,0.69493 6.30688,-0.0632 13.93547,-4.05944 6.72847,-3.52471 11.5103,-5.06802 16.91394,-5.45889 7.92527,-0.57326 9.95366,0.47672 10.93883,5.66242 0.44205,2.32675 1.34714,2.58005 7.71969,2.16045 3.97041,-0.26143 8.62387,-0.55795 10.34101,-0.65894 2.93888,-0.17285 3.63653,0.54802 6.51843,6.7353 0.59082,1.26846 3.57132,3.52413 6.62333,5.01258 7.71851,3.76427 11.79177,7.98406 9.71322,10.06261 -0.87786,0.87786 -1.60186,3.10838 -1.6089,4.95672 -0.007,1.84834 -2.0827,5.96455 -4.61261,9.14712 -2.5299,3.18257 -4.59982,6.66258 -4.59982,7.73335 0,1.07078 -1.77915,3.9732 -3.95367,6.44984 -3.1068,3.53846 -3.95367,5.74036 -3.95367,10.27984 0,3.17727 0.36839,6.73687 0.81865,7.91022 1.20489,3.13988 7.56453,5.99365 13.28322,5.9606 4.69325,-0.0271 6.93646,-0.91254 21.09792,-8.32747 3.051,-1.59751 7.69335,-5.41176 10.31634,-8.47613 4.35129,-5.08351 5.31169,-5.57157 10.96352,-5.57157 4.39855,0 9.0493,-1.3702 16.04144,-4.72613 13.75732,-6.6029 27.72891,-11.08855 34.5379,-11.08855 3.17664,0 6.91076,-0.82996 8.29804,-1.84436 2.22436,-1.62649 2.31606,-2.22974 0.77629,-5.10682 -2.1472,-4.01208 -0.87118,-6.80807 5.76694,-12.63642 6.29618,-5.52811 11.89833,-5.43059 25.62847,0.44616 25.41473,10.87795 60.94902,30.70865 73.16867,40.83339 3.53839,2.93177 3.91735,4.01721 4.04036,11.57298 0.14668,9.00973 3.24164,16.21406 7.5534,17.58256 1.32447,0.42037 5.27147,0.0305 8.77111,-0.86648 8.27854,-2.12173 10.19941,-1.22262 12.03226,5.63195 2.21787,8.29444 3.45608,9.32855 9.99542,8.34792 4.71165,-0.70656 5.81147,-0.43175 6.97531,1.74289 1.0654,1.99073 0.84214,3.24803 -0.97532,5.4925 -2.25277,2.78205 -2.68918,2.83644 -9.8684,1.2298 -6.09264,-1.36347 -9.31542,-1.36266 -17.06272,0.004 -10.90468,1.92407 -13.27174,2.92006 -18.77658,7.90058 -7.75382,7.01529 -30.03616,19.44153 -36.57143,20.39485 -4.92733,0.71878 -6.25997,1.44123 -6.25997,3.3937 0,1.36428 1.75402,3.51664 3.89782,4.78301 5.26947,3.11275 7.13414,8.01998 5.73528,15.09349 l -1.11834,5.65502 -14.21031,-0.35323 c -14.21028,-0.35324 -18.02646,0.59606 -18.02646,4.48421 0,0.91867 2.66873,2.92477 5.9305,4.45799 3.26178,1.53321 5.93051,3.34848 5.93051,4.03393 0,4.08173 -3.10948,14.6253 -4.70337,15.94811 -2.64555,2.19562 -2.34627,5.68914 0.72552,8.46909 2.15488,1.95013 4.14159,2.24064 11.36048,1.66118 10.76626,-0.86422 14.32383,-3.26401 19.72537,-13.30592 2.22473,-4.13595 5.34618,-8.43131 6.93657,-9.54526 1.59039,-1.11395 4.09393,-4.38209 5.56343,-7.26255 3.51084,-6.88182 7.47531,-8.68766 14.47107,-6.59169 4.73536,1.41875 5.95925,1.27862 11.05376,-1.26571 l 5.72881,-2.8611 7.07111,5.25346 c 3.8891,2.88942 9.89048,6.87292 13.33637,8.85221 7.17501,4.12128 11.5172,9.03814 11.54642,13.07451 0.0282,3.89075 2.19717,7.05376 3.71143,5.41228 2.04531,-2.21717 2.93053,-16.4626 1.02301,-16.4626 -4.60264,0 -22.23969,-19.89831 -19.26603,-21.73613 0.72435,-0.44768 3.24791,0.63405 5.60791,2.40384 2.35999,1.76978 8.73877,5.25912 14.17506,7.75407 11.33067,5.20014 12.48451,6.33481 13.78394,13.55505 1.11096,6.17316 2.78281,8.56628 5.9844,8.56628 2.97383,0 5.945,3.38191 4.01767,4.57307 -1.87458,1.15855 -1.74934,6.39333 0.19958,8.34225 3.77317,3.77317 10.14465,0.22376 10.23762,-5.70315 0.0231,-1.46962 -0.91859,-4.04333 -2.09254,-5.71938 -2.77086,-3.95596 -0.71406,-8.96575 4.18585,-10.19555 6.93379,-1.74026 18.30487,4.28088 12.11591,6.41554 -1.18929,0.41021 -0.65542,2.61535 1.91993,7.93031 2.93972,6.06697 4.57379,7.80734 9.28864,9.89294 4.90024,2.16762 6.23242,3.6696 9.28216,10.46534 4.18069,9.31581 5.39765,14.84076 3.79767,17.24128 -0.93022,1.39564 -2.77008,1.18421 -9.53958,-1.09628 -5.90768,-1.99015 -9.98612,-2.58562 -13.79609,-2.01428 -3.95092,0.59249 -6.98428,0.0965 -11.25293,-1.84003 -3.21416,-1.45813 -8.58514,-2.66418 -11.93548,-2.6801 -6.08603,-0.0289 -6.09229,-0.0242 -6.92784,5.20102 -1.18655,7.42023 -3.9236,8.50893 -14.9583,5.94981 -6.5088,-1.5095 -9.65466,-2.99604 -11.6585,-5.50909 -1.55648,-1.95201 -6.10904,-4.63721 -10.51776,-6.20359 -8.31238,-2.95332 -7.9984,-2.50272 -11.08511,-15.90903 -1.54218,-6.69812 -3.4513,-9.12799 -5.91038,-7.52259 -0.75944,0.4958 -10.27657,1.19902 -21.14916,1.56269 l -19.76833,0.66123 -6.36093,4.9398 c -6.83691,5.30944 -9.50246,5.79787 -18.50352,3.39044 l -5.79289,-1.54935 -10.6314,9.64638 c -9.045,8.20696 -10.69074,10.34891 -11.02913,14.35441 -0.32414,3.83718 -1.52742,5.56942 -6.50525,9.365 -7.66577,5.84513 -20.39997,21.62097 -22.37554,27.72005 -0.82174,2.53694 -2.53302,5.79871 -3.80285,7.24839 -5.51832,6.29994 -6.67849,13.45656 -3.76041,23.19626 1.244,4.15211 1.12666,6.06452 -0.65894,10.74008 -1.19486,3.12865 -2.17245,8.83941 -2.17245,12.69056 0,6.26178 0.54311,7.61911 5.13679,12.83781 5.48196,6.22783 6.67121,8.43491 13.40633,24.88021 5.11864,12.49833 11.40512,19.51815 19.40926,21.67344 4.88449,1.31525 6.33562,1.14531 11.81321,-1.38341 4.48856,-2.07214 10.02914,-3.12129 19.70186,-3.73074 11.22707,-0.70738 13.95702,-1.31617 16.47361,-3.67372 7.69124,-7.20516 16.67153,-6.44273 26.73847,2.27016 3.29605,2.8527 8.34091,5.81902 11.2108,6.5918 6.6218,1.78307 8.28577,4.89214 7.26765,13.57943 -1.02294,8.72827 2.69439,21.98101 9.25452,32.99354 6.05346,10.16197 11.2829,25.63855 12.1271,35.89023 0.60189,7.30912 0.24424,8.78671 -4.11524,17.00169 -2.62594,4.94829 -4.76566,10.83494 -4.75495,13.08142 0.0339,7.09783 3.77593,20.35982 7.3362,25.99967 4.77104,7.55781 9.0812,19.57421 11.75687,32.77727 2.44472,12.0634 5.12871,18.36864 10.57354,24.83946 2.45329,2.91557 3.19595,4.91916 2.5628,6.91403 -1.28674,4.05415 -28.03242,31.29072 -43.45095,44.24844 -50.87284,42.75354 -117.24597,72.209 -182.52767,81.00324 -18.13447,2.44293 -62.4893,4.21279 -74.46074,2.97115 z M 346.64722,465.28218 c 5.99403,-2.50446 5.794,-5.21391 -0.5247,-7.10703 -7.39509,-2.21563 -15.99125,-2.00222 -15.99125,0.397 0,1.05792 -1.62482,3.43012 -3.61073,5.27155 l -3.61072,3.34806 h 9.58356 c 5.38736,0 11.58467,-0.83612 14.15384,-1.90958 z m -29.083,-8.55732 c 1.41093,-2.28292 -10.24152,-11.84915 -16.91204,-13.88415 -11.58268,-3.53356 -18.55978,-3.90075 -23.10477,-1.21596 -2.24696,1.32731 -4.08538,2.80932 -4.08538,3.29334 0,1.20528 5.0741,2.46557 10.0144,2.48734 2.24614,0.01 9.65926,2.37282 16.47361,5.25095 12.77486,5.39562 16.2919,6.20798 17.61418,4.06848 z M 734.78238,349.13334 c 0.39491,-2.9584 2.0258,-7.04146 3.62419,-9.07348 1.59839,-2.03203 2.90617,-4.19243 2.90617,-4.80092 0,-1.18026 -6.94126,-5.12767 -9.01668,-5.12767 -2.26815,0 -5.4801,10.49477 -5.4801,17.90572 0,7.19624 0.056,7.30281 3.62419,6.89224 3.15046,-0.3625 3.71806,-1.12011 4.34223,-5.79589 z M 461.11913,302.13007 c 1.16845,-1.86617 0.75669,-2.93745 -2.1734,-5.65437 -1.98823,-1.84359 -3.61497,-4.53271 -3.61497,-5.9758 0,-4.88881 -3.58409,-4.15919 -9.72253,1.97925 -3.31253,3.31253 -6.63144,6.02278 -7.37534,6.02278 -0.74393,0 -1.35258,1.1565 -1.35258,2.57002 0,2.19165 1.11561,2.64424 7.57786,3.07422 12.09398,0.80472 15.12436,0.43803 16.66096,-2.0161 z m 235.00207,-14.3621 c 5.64711,-0.82981 10.70318,-2.16417 11.23571,-2.96525 0.53254,-0.80109 0.97732,-3.37026 0.98842,-5.70928 0.0147,-3.09539 -0.87646,-4.84026 -3.27454,-6.41154 -1.8121,-1.18733 -3.29473,-3.1877 -3.29473,-4.44526 0,-1.25756 -1.77915,-4.74252 -3.95367,-7.74435 -2.17451,-3.00184 -3.95366,-6.62825 -3.95366,-8.05871 0,-2.52101 -4.78264,-6.25755 -6.19793,-4.84226 -0.38534,0.38534 -0.99912,3.34894 -1.36396,6.58579 -0.56129,4.97981 -0.23342,6.15366 2.13138,7.6305 3.67869,2.29738 3.52962,5.30726 -0.5,10.09619 -3.81738,4.5367 -4.03651,5.89143 -1.31789,8.14768 2.75176,2.28375 2.48595,3.29862 -1.31788,5.03177 -3.60018,1.64033 -4.43532,4.19346 -1.37173,4.19346 1.05766,0 6.54337,-0.67894 12.19048,-1.50874 z m -33.79666,-18.42189 c 4.30716,-1.85289 6.50429,-3.5899 6.50429,-5.14216 0,-3.72691 -13.80866,-4.88108 -22.03369,-1.84166 -10.71927,3.96115 -11.95697,5.82639 -5.31251,8.00615 6.98979,2.29304 13.926,1.95281 20.84191,-1.02233 z"
   id="path11" /><path
   style="fill:#ffffff;stroke-width:1.31789"
   d="m 350.74403,838.30482 c -76.55798,-39.96898 -129.13286,-93.324 -165.05006,-167.49916 -17.29796,-35.72326 -26.78688,-66.01483 -32.82016,-104.7722 -2.87632,-18.47724 -4.04649,-64.88669 -2.14329,-85.00386 2.45235,-25.92184 5.53331,-44.14929 7.46249,-44.14929 0.93998,0 3.63546,2.43227 5.98994,5.40506 3.96694,5.00866 4.16661,5.72108 2.72267,9.71422 -2.00574,5.54678 -0.99855,7.96273 4.18522,10.03907 2.30364,0.92272 7.29327,3.63282 11.08807,6.02246 15.144,9.53637 29.08212,15.21902 41.3948,16.8769 4.25835,0.57337 6.30472,1.52315 6.7223,3.11998 0.70802,2.70744 38.26739,30.37698 47.70792,35.14585 4.64158,2.34469 8.64535,3.29293 13.90373,3.29293 4.06175,0 8.09666,0.71166 8.96647,1.58147 4.27393,4.27393 -0.39534,16.49763 -14.49831,37.95521 -5.79629,8.81901 -6.38884,10.38124 -5.49858,14.49678 0.54879,2.53694 1.03228,8.4916 1.07443,13.23259 0.0494,5.55171 0.82605,9.77361 2.18204,11.861 1.15796,1.78257 4.83029,8.87501 8.16072,15.76098 8.81832,18.23267 21.26552,34.05774 32.96701,41.91352 7.7071,5.17414 10.13588,7.68645 13.02953,13.47756 6.55483,13.11829 8.17587,23.16388 6.99274,43.33394 -1.31221,22.37034 -1.09878,28.27455 1.52864,42.28914 1.58367,8.44729 1.90351,15.42053 1.30057,28.35614 -0.94439,20.26136 -0.35959,21.83076 12.56273,33.71405 7.45474,6.85532 8.06907,7.85857 8.67526,14.16731 0.60102,6.25494 0.43117,6.78953 -2.15717,6.78953 -1.54527,0 -8.94764,-3.20453 -16.44971,-7.12118 z"
   id="path12" /></svg>
