<?xml version="1.0" encoding="UTF-8" standalone="no"?>
<svg
   version="1.0"
   width="300.000000pt"
   height="132.000000pt"
   viewBox="0 0 300.000000 132.000000"
   preserveAspectRatio="xMidYMid meet"
   id="svg10"
   sodipodi:docname="BorderDecoSvg.svg"
   inkscape:version="1.3.2 (091e20e, 2023-11-25, custom)"
   xmlns:inkscape="http://www.inkscape.org/namespaces/inkscape"
   xmlns:sodipodi="http://sodipodi.sourceforge.net/DTD/sodipodi-0.dtd"
   xmlns="http://www.w3.org/2000/svg"
   xmlns:svg="http://www.w3.org/2000/svg">
  <defs
     id="defs10" />
  <sodipodi:namedview
     id="namedview10"
     pagecolor="#ffffff"
     bordercolor="#000000"
     borderopacity="0.25"
     inkscape:showpageshadow="2"
     inkscape:pageopacity="0.0"
     inkscape:pagecheckerboard="0"
     inkscape:deskcolor="#d1d1d1"
     inkscape:document-units="pt"
     showgrid="false"
     inkscape:zoom="3.385"
     inkscape:cx="200"
     inkscape:cy="87.88774"
     inkscape:window-width="1920"
     inkscape:window-height="991"
     inkscape:window-x="-9"
     inkscape:window-y="-9"
     inkscape:window-maximized="1"
     inkscape:current-layer="svg10" />
  <metadata
     fill="#ffffff"
     id="metadata1">
Created by potrace 1.10, written by Peter Selinger 2001-2011
</metadata>
  <g
     transform="translate(0.000000,132.000000) scale(0.100000,-0.100000)"
     fill="#ffffff"
     stroke="none"
     id="g10">
    <path
       d="M1815 380 c-71 -10 -152 -19 -179 -19 -42 -1 -47 -3 -41 -18 18 -45 42 -121 48 -151 7 -33 7 -33 -24 -27 -30 7 -31 6 -26 -16 3 -13 11 -52 18 -86 l12 -63 142 0 142 0 52 88 c28 48 51 95 51 104 0 22 -47 58 -76 58 -31 0 -31 20 1 88 27 59 28 63 18 61 -5 -1 -66 -10 -138 -19z"
       fill="#ffffff"
       id="path1" />
    <path
       d="M0 165 l0 -165 44 0 44 0 -11 31 c-11 28 -10 33 12 50 13 10 29 19 37 19 7 0 16 12 20 28 3 15 8 35 11 45 3 13 -2 20 -16 24 -25 6 -26 21 -6 70 9 20 12 40 8 44 -5 3 -38 9 -75 13 l-68 7 0 -166z"
       fill="#ffffff"
       id="path2" />
    <path
       d="M2877 309 c-38 -4 -71 -10 -74 -13 -3 -3 21 -17 53 -31 95 -42 115 -73 74 -110 -17 -16 -25 -17 -57 -7 -20 6 -39 9 -42 7 -2 -3 11 -28 28 -57 l33 -52 -27 -23 -26 -23 80 0 81 0 0 160 0 160 -27 -1 c-16 -1 -59 -5 -96 -10z"
       fill="#ffffff"
       id="path3" />
    <path
       d="M1205 243 c-41 -6 -47 -15 -40 -55 5 -26 14 -37 36 -45 36 -14 38 -45 9 -103 l-20 -40 96 0 96 0 -27 32 c-21 25 -25 38 -21 62 16 83 17 103 7 129 -10 25 -15 27 -58 26 -27 -1 -61 -4 -78 -6z"
       fill="#ffffff"
       id="path4" />
    <path
       d="M2180 235 c0 -20 25 -106 41 -141 11 -22 19 -52 19 -67 0 -26 1 -27 61 -27 33 0 59 3 57 8 -2 4 -15 30 -30 57 -43 81 -148 202 -148 170z"
       fill="#ffffff"
       id="path5" />
    <path
       d="M1005 149 c-19 -17 -35 -40 -35 -51 0 -10 -5 -28 -10 -39 -18 -33 4 -59 51 -59 48 0 54 12 34 69 -13 38 -13 46 0 71 27 51 12 55 -40 9z"
       fill="#ffffff"
       id="path6" />
    <path
       d="M297 163 c-15 -4 -18 -11 -13 -36 4 -18 8 -53 9 -79 l2 -48 69 0 c62 0 67 1 55 17 -8 9 -16 46 -19 82 l-5 66 -40 2 c-22 0 -48 -1 -58 -4z"
       fill="#ffffff"
       id="path7" />
    <path
       d="M2567 149 c-29 -22 -59 -74 -71 -122 l-6 -27 56 0 c50 0 54 1 40 16 -19 19 -20 60 -3 94 33 64 30 73 -16 39z"
       fill="#ffffff"
       id="path8" />
    <path
       d="M740 124 c16 -41 12 -66 -17 -96 l-27 -28 80 0 c43 0 74 4 68 8 -6 4 -22 30 -34 59 -12 29 -33 59 -46 68 -32 21 -35 19 -24 -11z"
       fill="#ffffff"
       id="path9" />
  </g>
</svg>
