<svg version="1.0" xmlns="http://www.w3.org/2000/svg" width="338.000000pt" height="290.000000pt" viewBox="0 0 338.000000 290.000000" preserveAspectRatio="xMidYMid meet">

<g transform="translate(0.000000,290.000000) scale(0.100000,-0.100000)" fill="#ffffff" stroke="none">
<path d="M1459 2835 c-21 -11 -33 -12 -57 -3 -40 15 -93 0 -164 -48 -41 -28 -56 -33 -68 -25 -70 52 -164 53 -234 4 -33 -23 -56 -31 -107 -35 -97 -8 -131 -28 -185 -110 -62 -94 -84 -145 -84 -195 0 -53 12 -84 52 -134 29 -36 33 -48 33 -102 0 -34 4 -73 8 -87 6 -21 3 -28 -23 -45 -17 -11 -43 -40 -58 -65 -28 -47 -27 -41 -24 -230 3 -125 -7 -198 -34 -255 -15 -33 -30 -84 -32 -113 -4 -44 0 -58 22 -93 l27 -40 -20 -43 c-13 -26 -21 -62 -21 -94 0 -61 41 -195 75 -245 l24 -37 -19 -42 c-54 -125 -26 -211 101 -300 32 -23 59 -45 59 -49 0 -4 -47 -85 -105 -180 -58 -96 -102 -175 -97 -177 4 -1 119 52 255 118 172 83 258 120 283 120 50 0 103 25 149 70 l41 40 68 -36 c61 -32 74 -36 126 -32 45 3 71 12 112 38 29 18 82 51 116 72 l64 39 36 -37 c46 -45 88 -64 147 -64 59 0 102 19 144 63 l34 36 35 -31 c34 -29 125 -78 148 -78 6 0 21 -11 34 -25 74 -79 355 -80 417 -1 10 12 40 32 66 45 59 28 111 94 133 169 31 103 16 317 -25 372 -19 27 -21 36 -12 62 19 54 13 95 -17 129 l-28 31 37 73 c76 150 74 235 -6 302 l-45 37 60 62 c108 112 124 185 65 300 -33 66 -34 72 -24 119 8 38 8 59 -3 90 -12 36 -11 43 14 92 39 78 45 133 20 184 l-21 42 20 61 c43 126 -11 197 -151 200 -52 1 -72 6 -94 24 -33 25 -35 26 -72 12 -23 -9 -36 -6 -83 18 -76 40 -109 46 -161 28 -38 -13 -47 -13 -71 0 -45 23 -75 18 -102 -17 -21 -27 -27 -30 -45 -20 -49 26 -157 7 -214 -39 -35 -29 -42 -31 -67 -20 -16 6 -53 10 -82 9 -47 -2 -62 3 -114 35 -100 62 -200 82 -256 51z" fill="#ffffff"/>
</g>
</svg>