<?xml version="1.0" standalone="no"?>
<!DOCTYPE svg PUBLIC "-//W3C//DTD SVG 20010904//EN"
 "http://www.w3.org/TR/2001/REC-SVG-20010904/DTD/svg10.dtd">
<svg version="1.0" xmlns="http://www.w3.org/2000/svg"
 width="512.000000pt" height="512.000000pt" viewBox="0 0 32.000000 32.000000"
 preserveAspectRatio="xMidYMid meet">

<g transform="translate(0.000000,512.000000) scale(0.100000,-0.100000)"
fill="#000000" stroke="none">
<path d="M1514 5071 c-18 -11 -35 -25 -39 -31 -15 -24 -23 -83 -15 -105 14
-38 -87 -435 -111 -435 -5 0 -23 13 -41 28 -64 56 -335 271 -373 296 -47 32
-91 33 -136 3 -48 -32 -61 -62 -53 -117 21 -130 2 -296 -75 -643 -65 -292 -91
-446 -98 -587 -5 -97 -2 -128 16 -199 27 -107 58 -161 136 -236 l62 -60 31
-130 c39 -163 41 -175 52 -277 10 -99 -2 -219 -31 -314 -25 -81 -113 -270
-192 -411 -55 -98 -57 -100 -89 -96 -106 12 -160 28 -246 74 -101 53 -128 58
-209 34 -90 -27 -129 -107 -89 -183 8 -15 88 -100 179 -190 l165 -162 -60 -42
c-107 -75 -112 -116 -34 -274 61 -121 112 -181 191 -222 45 -24 61 -27 155
-27 75 0 123 5 168 19 l62 19 68 -65 c101 -97 158 -129 260 -143 128 -18 322
93 447 255 l44 57 133 7 c495 26 808 110 1078 291 91 61 147 107 277 222 l81
74 36 -25 c56 -38 201 -60 345 -53 128 7 203 24 295 67 60 29 63 29 111 14 92
-27 319 -82 390 -93 95 -15 327 -31 458 -31 121 0 157 12 182 60 8 16 15 48
15 71 0 48 6 41 -248 274 -213 195 -306 272 -444 365 -65 45 -124 91 -132 103
-7 12 -44 79 -81 149 -153 283 -246 359 -544 443 -99 28 -223 84 -294 134 -23
16 -78 62 -121 101 -145 132 -348 271 -400 273 -17 1 -43 -2 -58 -6 -28 -7
-28 -7 -28 45 0 117 -42 301 -102 448 -86 213 -255 463 -500 743 -130 148
-450 487 -469 498 -29 15 -92 10 -125 -10z m267 -503 c395 -431 572 -697 644
-973 31 -119 37 -205 36 -521 -1 -248 2 -337 13 -391 19 -87 50 -173 88 -236
15 -26 28 -50 28 -52 0 -3 -19 -5 -42 -5 -40 0 -48 5 -108 68 -72 75 -122 160
-144 246 -9 31 -27 157 -41 279 -31 262 -53 373 -100 515 -77 230 -206 423
-447 668 l-148 151 57 176 c32 97 61 177 64 177 3 0 48 -46 100 -102z m-607
-257 c341 -284 556 -517 663 -716 92 -173 129 -318 163 -627 11 -101 25 -209
31 -241 25 -140 82 -274 156 -365 19 -24 33 -45 31 -48 -3 -2 -94 -15 -203
-29 -108 -14 -249 -36 -312 -51 -206 -46 -450 -132 -626 -220 -38 -20 -71 -34
-73 -31 -2 2 12 40 30 84 100 237 116 429 60 713 l-25 124 25 19 c48 35 58
124 18 174 -9 12 -57 42 -107 67 -92 45 -146 90 -164 138 -34 90 -18 272 50
588 38 177 91 443 104 523 4 24 10 35 17 31 7 -4 79 -64 162 -133z m1890
-1450 c133 -122 312 -218 494 -264 56 -15 128 -40 160 -56 98 -50 132 -97 287
-393 62 -120 106 -193 123 -204 14 -9 49 -18 77 -19 48 -1 60 -7 146 -73 52
-39 126 -101 164 -137 l70 -66 -84 6 c-95 6 -408 83 -470 114 -59 31 -85 27
-196 -29 -124 -63 -217 -80 -348 -64 -72 9 -91 16 -143 51 -148 101 -215 228
-216 409 0 86 23 140 103 241 28 34 54 75 58 91 17 63 -21 131 -86 153 -63 20
-229 230 -249 314 l-7 30 24 -20 c13 -12 55 -49 93 -84z m-254 -191 c23 -34
71 -92 106 -129 35 -38 64 -71 64 -75 0 -4 -12 -24 -26 -45 l-25 -39 -37 41
c-118 133 -165 230 -178 366 l-6 66 31 -62 c16 -34 49 -90 71 -123z m-108
-639 c186 -39 185 -38 193 -79 11 -62 63 -184 101 -237 l35 -50 -73 -68 c-204
-192 -417 -310 -662 -367 -222 -52 -597 -79 -871 -63 l-170 10 -37 37 c-34 34
-57 42 -113 36 -11 -1 -81 -41 -155 -90 -186 -121 -299 -165 -373 -146 -22 5
-77 73 -77 95 0 22 151 80 277 106 41 8 91 59 99 101 13 69 -33 136 -104 150
-16 3 -57 -2 -90 -11 l-62 -18 -37 29 -38 29 95 5 c102 5 113 9 200 75 255
195 597 334 1039 425 254 52 649 66 823 31z m-1438 -1109 l70 -7 -42 -28 c-73
-48 -125 -48 -175 -1 -38 35 -22 56 36 48 23 -3 73 -9 111 -12z"/>
<path d="M3581 2336 c-68 -38 -66 -152 4 -184 97 -44 187 46 143 143 -22 49
-96 69 -147 41z"/>
</g>
</svg>
